# xmcd
#
# Track frame offsets: 
#        150
#        8554
#        16298
#        27530
#        35698
#        46487
#        57209
#        59733
#        61349
#        63598
#        66680
#        81692
#        101022
#        114731
#        128491
#        141715
#        155420
#        156900
#        166236
#        179104
#        214350
#        227371
#        241550
#        252472
#        260866
#        266752
#        273838
#        276548
#        286101
#        294318
#        305058
#
# Disc length: 4217 seconds
#
# Revision: 0
# Processed by: cddbd v1.5.2PL0 Copyright (c) Steve Scherf et al.
# Submitted via: ExactAudioCopy v0.99pb5
#
DISCID=ed10771f
DTITLE=The Beatles  - Contemporary Sound - Complete Revisionist Remixe
DTITLE=s D 8
DYEAR=1900
DGENRE=
TTITLE0=For You Blue (ant laser)
TTITLE1=For You Blue (ant dvd)
TTITLE2=For You Blue (libn)
TTITLE3=Ballad of John and Yoko (imagine laser)
TTITLE4=Ballad of John and Yoko (ant laser/sp)
TTITLE5=Ballad of John and Yoko (ant dvd)
TTITLE6=Golden Slumbers (ant dvd)
TTITLE7=Octopus Garden (ant dvd)
TTITLE8=Here Comes the Sun (ant dvd)
TTITLE9=Come Together (ant dvd)
TTITLE10=Come Together (LOVE)
TTITLE11=Come Together (rockband)
TTITLE12=Something (ant laser)
TTITLE13=Something (ant dvd)
TTITLE14=Something (LOVE)
TTITLE15=Something (rockband)
TTITLE16=Maxwell_s Silver Hammer (ant dc2)
TTITLE17=Octopus Garden (LOVE)
TTITLE18=Octopus Garden (rockband)
TTITLE19=I Want You (She_s So Heavy) (rockband)
TTITLE20=Here Comes the Sun (LOVE)
TTITLE21=Here Comes the Sun (rockband)
TTITLE22=Because (ant 3)
TTITLE23=Because (LOVE)
TTITLE24=Sun King (LOVE)
TTITLE25=The End (ant 3)
TTITLE26=The End (ant dvd)
TTITLE27=The End (rockband)
TTITLE28=I Me Mine (ant 3)
TTITLE29=I Me Mine (libn)
TTITLE30=I Me Mine (rockband)
EXTD=
EXTT0=
EXTT1=
EXTT2=
EXTT3=
EXTT4=
EXTT5=
EXTT6=
EXTT7=
EXTT8=
EXTT9=
EXTT10=
EXTT11=
EXTT12=
EXTT13=
EXTT14=
EXTT15=
EXTT16=
EXTT17=
EXTT18=
EXTT19=
EXTT20=
EXTT21=
EXTT22=
EXTT23=
EXTT24=
EXTT25=
EXTT26=
EXTT27=
EXTT28=
EXTT29=
EXTT30=
PLAYORDER=
